<svg width="20" height="22" viewBox="0 0 20 22" fill="none" xmlns="http://www.w3.org/2000/svg">
<path d="M4.47679 21.8745H0.330357V7.27002H4.47679V21.8745ZM2.40134 5.27783C1.07545 5.27783 0 4.07666 0 2.62646C9.49017e-09 1.92988 0.252998 1.26183 0.703336 0.769274C1.15367 0.276716 1.76446 0 2.40134 0C3.03821 0 3.649 0.276716 4.09934 0.769274C4.54968 1.26183 4.80268 1.92988 4.80268 2.62646C4.80268 4.07666 3.72679 5.27783 2.40134 5.27783ZM19.9955 21.8745H15.858V14.7651C15.858 13.0708 15.8268 10.8979 13.7022 10.8979C11.5464 10.8979 11.2161 12.7388 11.2161 14.6431V21.8745H7.07411V7.27002H11.0509V9.26221H11.1089C11.6625 8.11475 13.0147 6.90381 15.0321 6.90381C19.2286 6.90381 20 9.92627 20 13.852V21.8745H19.9955Z" fill="#FEFEFE"/>
</svg>
